<?xml version="1.0" standalone="no"?>
<!DOCTYPE svg PUBLIC "-//W3C//DTD SVG 20010904//EN"
 "http://www.w3.org/TR/2001/REC-SVG-20010904/DTD/svg10.dtd">
<svg version="1.0" xmlns="http://www.w3.org/2000/svg"
 width="318.000000pt" height="318.000000pt" viewBox="0 0 318.000000 318.000000"
 preserveAspectRatio="xMidYMid meet">
<metadata>
Created by potrace 1.14, written by Peter Selinger 2001-2017
</metadata>
<g transform="translate(0.000000,318.000000) scale(0.100000,-0.100000)"
fill="#000000" stroke="none">
<path d="M1448 3104 c-4 -4 -51 -11 -118 -19 -46 -6 -157 -33 -200 -49 -19 -8
-37 -14 -40 -15 -3 -1 -16 -4 -29 -8 -36 -9 -207 -94 -282 -141 -317 -194
-566 -528 -664 -892 -22 -82 -28 -111 -45 -230 -9 -63 -6 -315 4 -375 39 -235
86 -367 200 -565 69 -119 124 -190 235 -301 104 -103 179 -164 281 -226 57
-35 196 -106 210 -108 3 0 10 -3 15 -6 14 -9 164 -56 200 -64 42 -8 60 -13 60
-15 0 -1 16 -3 35 -5 19 -2 35 -4 35 -5 0 -7 174 -22 250 -21 54 0 180 8 180
11 0 2 22 6 80 14 66 9 240 57 276 77 11 5 19 8 19 5 0 -3 46 19 103 48 135
69 256 148 323 211 142 134 176 171 244 265 22 30 44 61 50 68 6 6 8 12 4 12
-4 0 0 8 9 18 38 43 145 282 163 367 1 6 7 30 14 55 14 53 19 73 25 120 3 19
8 46 12 60 9 36 11 318 2 365 -4 22 -10 59 -13 83 -3 24 -8 47 -11 52 -3 5 -7
21 -9 37 -3 15 -12 53 -21 83 -9 30 -18 62 -20 70 -5 22 -32 86 -66 157 -16
35 -30 66 -31 70 -2 5 -9 16 -18 26 -8 10 -15 21 -14 25 0 4 -4 12 -8 17 -4 6
-35 48 -67 94 -77 110 -228 263 -334 340 -47 34 -90 61 -96 61 -6 0 -11 5 -11
10 0 6 -7 10 -15 10 -8 0 -15 5 -15 11 0 5 -4 8 -9 5 -5 -4 -11 -2 -13 2 -10
27 -322 149 -400 157 -9 1 -25 5 -35 9 -10 4 -36 10 -58 12 -57 6 -68 9 -82
17 -8 5 -13 3 -13 -4 0 -8 -4 -8 -12 -2 -12 10 -272 16 -280 7z m302 -77 c113
-13 175 -25 230 -45 8 -3 22 -6 31 -8 9 -2 29 -9 45 -15 16 -7 34 -13 39 -14
6 -2 28 -11 50 -20 22 -10 42 -19 45 -20 14 -4 119 -60 143 -77 15 -11 27 -16
27 -11 0 4 4 3 8 -2 4 -6 43 -37 87 -69 241 -179 431 -445 515 -721 12 -38 26
-85 32 -103 5 -19 12 -46 13 -60 2 -15 7 -52 11 -82 10 -73 10 -331 0 -400 -4
-30 -9 -64 -10 -75 -12 -80 -73 -258 -124 -360 -48 -97 -141 -245 -154 -245
-4 0 -8 -6 -8 -14 0 -22 -200 -216 -286 -278 -87 -62 -204 -131 -204 -120 0 4
-4 2 -8 -4 -20 -33 -303 -127 -415 -139 -23 -3 -58 -7 -77 -10 -42 -6 -263 -6
-305 0 -16 2 -52 6 -80 10 -27 3 -68 10 -90 16 -22 6 -44 12 -50 13 -42 10
-102 30 -112 38 -7 6 -13 8 -13 5 0 -9 -144 54 -151 65 -3 5 -10 10 -15 10
-46 2 -247 144 -356 251 -78 78 -90 92 -155 177 -101 134 -214 373 -234 495
-1 6 -6 21 -11 35 -5 14 -12 41 -14 60 -3 19 -7 51 -10 70 -11 66 -12 325 -3
385 5 33 12 76 14 95 7 42 38 151 68 235 33 92 147 306 168 313 5 2 9 10 9 17
0 7 3 15 8 17 4 2 23 23 41 48 79 104 234 242 366 326 93 59 269 140 295 136
3 0 10 4 15 8 6 5 29 13 50 19 22 5 58 15 80 21 43 12 65 15 165 25 36 4 66 8
67 9 5 4 216 -2 263 -7z"/>
<path d="M1240 1919 c-14 -11 -37 -32 -52 -45 -16 -13 -28 -21 -28 -18 0 4 -6
2 -12 -3 -7 -5 -26 -10 -43 -12 -16 -2 -32 -6 -35 -10 -3 -3 -30 -22 -60 -42
-50 -32 -59 -34 -99 -27 -24 4 -60 10 -80 12 -20 3 -47 8 -61 11 -31 7 -79 9
-84 4 -1 -2 -15 -78 -30 -168 l-26 -163 28 -46 28 -46 92 -16 c92 -16 112 -13
112 17 0 7 3 13 6 13 4 0 66 -27 138 -59 72 -33 147 -63 166 -66 19 -3 51 -10
70 -14 80 -20 100 -21 100 -6 0 8 6 16 13 16 46 4 77 21 77 41 0 15 3 18 13
11 15 -13 41 -9 73 11 29 19 32 63 7 81 -17 13 -17 14 0 33 17 18 16 20 -18
43 -19 13 -35 27 -35 32 0 4 -7 7 -15 7 -8 0 -20 9 -27 20 -7 11 -16 20 -21
20 -10 0 -169 119 -179 134 -8 12 22 70 63 118 29 34 31 40 24 87 -7 51 -7 51
-43 51 -22 -1 -47 -9 -62 -21z m70 -48 c0 -16 -11 -40 -26 -57 -15 -15 -38
-50 -51 -76 -26 -52 -33 -56 -58 -32 -9 9 -18 14 -20 12 -3 -2 68 -58 156
-124 228 -169 207 -150 188 -169 -15 -15 -20 -14 -67 14 -29 17 -52 26 -52 22
0 -5 14 -15 30 -23 17 -7 30 -16 30 -19 0 -4 10 -10 23 -13 12 -3 33 -15 46
-26 19 -17 21 -23 11 -36 -8 -8 -20 -12 -29 -8 -9 3 -29 8 -46 11 -16 3 -37
10 -45 16 -8 6 -4 -1 9 -16 19 -21 22 -29 12 -41 -13 -16 -56 -12 -78 6 -9 7
-13 7 -13 -1 0 -6 5 -11 10 -11 6 0 10 -7 10 -15 0 -14 -12 -20 -33 -16 -27 4
-52 10 -52 11 0 1 -11 3 -25 6 -21 3 -62 13 -80 19 -6 2 -73 32 -155 70 -33
16 -64 29 -70 29 -14 1 -13 58 1 136 7 36 15 85 19 110 7 49 21 80 35 80 5 0
15 6 22 13 30 27 80 59 101 63 12 2 33 6 46 9 13 2 38 17 55 33 43 40 78 62
88 56 4 -3 8 -18 8 -33z m-560 -392 c0 -20 -24 -26 -35 -9 -8 13 14 42 26 34
5 -3 9 -14 9 -25z"/>
<path d="M1300 1500 c0 -6 7 -10 15 -10 8 0 15 2 15 4 0 2 -7 6 -15 10 -8 3
-15 1 -15 -4z"/>
<path d="M1340 1481 c0 -5 7 -11 15 -15 8 -3 15 -1 15 3 0 5 -7 11 -15 15 -8
3 -15 1 -15 -3z"/>
<path d="M1280 1416 c0 -2 9 -6 20 -9 11 -3 18 -1 14 4 -5 9 -34 13 -34 5z"/>
<path d="M1335 1390 c3 -5 8 -10 11 -10 2 0 4 5 4 10 0 6 -5 10 -11 10 -5 0
-7 -4 -4 -10z"/>
<path d="M1255 1338 c17 -6 35 -15 42 -20 7 -5 14 -5 18 2 4 6 3 10 -2 9 -4
-1 -21 3 -36 9 -16 7 -34 12 -40 11 -7 0 2 -5 18 -11z"/>
<path d="M1856 1923 c-16 -54 -10 -93 21 -125 30 -32 63 -88 63 -107 0 -5 -30
-31 -67 -57 -227 -161 -254 -184 -238 -200 19 -19 19 -30 0 -38 -8 -3 -15 -17
-15 -33 1 -35 41 -67 77 -60 19 3 27 0 30 -13 5 -18 36 -34 62 -30 7 1 19 -7
27 -18 13 -19 15 -19 121 5 60 13 122 30 138 38 17 7 64 27 105 45 41 18 81
37 89 43 10 9 17 7 27 -8 8 -10 14 -22 14 -26 0 -7 39 -5 108 5 81 12 91 17
117 63 l27 45 -17 101 c-10 56 -18 109 -20 117 -1 8 -5 39 -10 68 l-8 53 -46
-6 c-25 -3 -86 -12 -136 -20 -58 -10 -91 -11 -93 -5 -2 6 -9 10 -15 10 -7 0
-27 13 -45 28 -18 16 -59 36 -90 46 -35 10 -74 32 -102 56 -35 31 -53 40 -82
40 -26 0 -38 -5 -42 -17z m93 -43 c6 0 11 -4 11 -8 0 -15 62 -54 93 -59 40 -6
60 -16 123 -64 46 -33 52 -43 59 -84 3 -26 9 -57 11 -68 10 -47 18 -114 18
-151 l1 -39 -123 -53 c-101 -43 -194 -73 -239 -76 -5 0 -18 -4 -30 -9 -18 -6
-25 -4 -33 11 -9 16 -8 20 6 20 10 0 15 3 11 6 -3 4 -14 3 -24 -1 -38 -16 -62
-14 -68 6 -4 10 -3 24 0 30 6 8 84 49 105 54 3 0 15 6 28 13 19 11 22 10 23
-5 0 -10 3 -13 5 -7 3 6 -3 24 -12 40 -12 22 -15 24 -11 7 4 -17 -2 -24 -27
-34 -17 -6 -34 -11 -38 -10 -5 0 -8 -3 -8 -7 0 -11 -121 -52 -142 -49 -33 6
-32 18 3 50 19 18 31 29 26 25 -12 -8 -40 19 -33 31 3 5 56 44 116 87 61 44
123 89 138 101 27 23 52 30 52 15 0 -17 104 -123 134 -138 17 -8 23 -9 12 -2
-64 44 -131 128 -166 208 -13 30 -39 72 -57 93 -37 42 -40 58 -16 82 15 16 18
16 28 1 7 -9 17 -16 24 -16z m528 -396 c7 -18 -17 -38 -31 -24 -11 11 -1 40
14 40 6 0 13 -7 17 -16z"/>
<path d="M1870 1522 c0 -18 5 -32 10 -32 6 0 8 11 4 28 -10 39 -14 40 -14 4z"/>
<path d="M1813 1469 c-45 -29 -41 -33 7 -8 22 12 40 23 40 25 0 9 -16 3 -47
-17z"/>
<path d="M1750 1435 c-11 -13 -10 -14 4 -9 9 3 16 10 16 15 0 13 -6 11 -20 -6z"/>
<path d="M1925 1340 c-3 -6 1 -7 10 -4 8 4 22 1 30 -6 13 -11 14 -10 9 4 -7
18 -39 22 -49 6z"/>
<path d="M1890 1330 c0 -5 5 -10 11 -10 5 0 7 5 4 10 -3 6 -8 10 -11 10 -2 0
-4 -4 -4 -10z"/>
</g>
</svg>
